<svg id="Layer_1" enable-background="new 0 0 512 512" height="512" viewBox="0 0 512 512" width="512" xmlns="http://www.w3.org/2000/svg" xmlns:xlink="http://www.w3.org/1999/xlink"><linearGradient id="SVGID_1_" gradientUnits="userSpaceOnUse" x1="487.951" x2="365.377" y1="256.762" y2="85.158"><stop offset="0" stop-color="#ff9827"/><stop offset="1" stop-color="#ffac48"/></linearGradient><linearGradient id="SVGID_2_" gradientUnits="userSpaceOnUse" x1="417.175" x2="202.67" y1="408.183" y2="163.035"><stop offset="0" stop-color="#ffac48"/><stop offset="1" stop-color="#ffc477"/></linearGradient><linearGradient id="SVGID_3_" gradientUnits="userSpaceOnUse" x1="261.387" x2="8.068" y1="461.513" y2="275.608"><stop offset="0" stop-color="#ffc477"/><stop offset="1" stop-color="#ffdaa4"/></linearGradient><path d="m322.863 102.041s36.33-58.944 151.874-79.571c24.022-4.288 43.591 19.002 35.345 41.968-9.741 27.132-20.238 64.972-25.997 111.828-12.006 97.671-25.727 142.772-75.465 167.388-1.715.604-176.658-80.775-85.757-241.613z" fill="url(#SVGID_1_)"/><path d="m171.933 197.265s22.297-109.329 150.931-95.224c3.43 5.53-10.291 63.844 72.035 132.449s68.605 190.379-58.314 226.396c-8.576 0-228.112-107.037-164.652-263.621z" fill="url(#SVGID_2_)"/><path d="m232.661 165.962c-3.49-4.28-2.85-10.579 1.43-14.07 14.059-11.465 31.597-18.33 52.126-20.405 5.498-.557 10.4 3.449 10.955 8.943.556 5.495-3.449 10.4-8.943 10.955-16.798 1.698-30.082 7.301-41.498 16.007-5.695 4.342-12.093.994-14.07-1.43z" fill="#ffeed7"/><path d="m336.584 460.886c22.225-6.307 40.97-15.237 56.344-26.058 0 0-29.728-88.803-101.753-134.832-9.208-5.884-21.366-3.886-28.01 4.79 0 0-12.961 18.949 5.097 30.141 10.404 6.448 22.046 14.926 28.43 21.032-.083 0-.522 39.408-.811 84.281 22.025 13.427 38.477 20.646 40.703 20.646z" fill="#ff9827"/><path d="m1.611 451.9c-6.705-72.521.089-225.661 170.322-254.635 1.715 4.637 5.145 80.99 82.326 126.855 57.985 34.458 90.8 71.102 99.172 117.017 4.654 25.523-15.41 48.906-41.354 48.906h-268.702c-21.694 0-39.767-16.541-41.764-38.143z" fill="url(#SVGID_3_)"/><ellipse cx="72.55" cy="438.695" fill="#ffb0d0" rx="14.936" ry="12.003"/><ellipse cx="248.321" cy="438.695" fill="#ffb0d0" rx="14.936" ry="12.003"/><circle cx="98.157" cy="409.077" fill="#fff" r="29.618"/><circle cx="110.122" cy="409.077" fill="#383842" r="17.652"/><circle cx="222.714" cy="409.077" fill="#fff" r="29.618"/><circle cx="234.617" cy="409.077" fill="#383842" r="17.652"/><path d="m68.576 407.591c.774-15.667 13.721-28.132 29.58-28.132s28.806 12.465 29.58 28.132z" fill="#ffac48"/><path d="m193.171 407.591c.774-15.667 13.721-28.132 29.58-28.132s28.806 12.465 29.58 28.132z" fill="#ffac48"/><path d="m170.115 437.964h-19.323c-4.142 0-7.5-3.358-7.5-7.5s3.358-7.5 7.5-7.5h19.323c4.142 0 7.5 3.358 7.5 7.5s-3.357 7.5-7.5 7.5z" fill="#383842"/><path d="m106.709 332.141c5.8 8.563 21.028 21.564 41.663 8.015 13.85-9.093 17.307-27.944 8.015-41.662-19.958-29.467-26.317-63.139-27.532-90.193-22.719 8.061-41.57 18.839-57.181 31.49 4.462 29.441 14.523 62.066 35.035 92.35z" fill="#e4996d"/><path d="m461.501 127.833c-10.761-12.599-29.699-14.088-42.296-3.327-12.598 10.761-14.088 29.698-3.327 42.296 23.293 27.27 43.076 62.735 55.298 87.035 5.185-21.32 9.131-46.843 12.908-77.571.659-5.362 1.38-10.602 2.155-15.725-7.651-11.271-15.934-22.402-24.738-32.708z" fill="#d97c41"/><circle cx="214.471" cy="187.265" fill="#ffeed7" r="10"/></svg>